<?xml version="1.0" encoding="iso-8859-1"?>
<!-- Generator: Adobe Illustrator 18.1.1, SVG Export Plug-In . SVG Version: 6.00 Build 0)  -->
<svg version="1.1" id="Capa_1" xmlns="http://www.w3.org/2000/svg" xmlns:xlink="http://www.w3.org/1999/xlink" x="0px" y="0px"
	 viewBox="0 0 139.578 139.578" style="enable-background:new 0 0 139.578 139.578;" xml:space="preserve">
<g id="_x36__6_">
	<g>
		<path style="fill-rule:evenodd;clip-rule:evenodd;" d="M110.621,69.114c6.797-5.415,10.817-13.673,10.817-22.385
			c0-15.787-12.862-28.631-28.671-28.631c-14.85,0-27.016,11.124-28.504,25.656c-4.689-3.232-10.352-5.083-16.4-5.083
			c-12.326,0.003-23.439,8.048-27.32,19.665c-0.526-0.044-1.038-0.066-1.554-0.066c-5.074,0.001-9.842,1.975-13.429,5.557
			C1.973,67.411-0.001,72.174,0,77.239c0.002,9.187,6.448,16.924,15.413,18.624c0.013,0.014,0.026,0.028,0.039,0.041
			c0.191,0.19,0.449,0.297,0.719,0.297l85.917-0.018c3.982-0.001,7.725-1.55,10.539-4.362c2.815-2.812,4.365-6.55,4.364-10.526
			C116.99,76.26,114.466,71.808,110.621,69.114z M92.767,20.128c14.689,0,26.638,11.933,26.638,26.601
			c0,8.346-3.967,16.248-10.644,21.265c-0.096-0.048-0.199-0.081-0.296-0.127c-0.345-0.164-0.695-0.316-1.054-0.453
			c-0.156-0.06-0.312-0.117-0.47-0.172c-0.37-0.128-0.746-0.238-1.128-0.337c-0.151-0.039-0.3-0.082-0.451-0.116
			c-0.404-0.091-0.816-0.16-1.232-0.217c-0.133-0.019-0.264-0.046-0.397-0.061c-0.543-0.06-1.092-0.097-1.651-0.097
			c-1.725,0.001-3.405,0.291-5.008,0.864c-0.752-1.341-1.652-2.561-2.663-3.662c-3.622-3.945-8.749-6.263-14.304-6.263
			c-1.699,0-3.382,0.221-5.018,0.657c-0.031-0.091-0.072-0.177-0.104-0.268c-0.202-0.564-0.416-1.122-0.651-1.669
			c-0.161-0.375-0.34-0.738-0.515-1.104c-0.116-0.24-0.226-0.484-0.348-0.721c-0.238-0.464-0.493-0.914-0.754-1.361
			c-0.063-0.107-0.124-0.216-0.188-0.323c-1.7-2.83-3.845-5.319-6.346-7.373C66.981,31.093,78.554,20.128,92.767,20.128z
			 M111.19,90.385c-2.431,2.429-5.663,3.767-9.102,3.767l-85.283,0.018c-0.134-0.107-0.297-0.181-0.476-0.209
			C8.047,92.657,2.035,85.624,2.033,77.239c-0.001-4.524,1.762-8.777,4.965-11.976c3.202-3.199,7.46-4.962,12.005-4.963
			c0.69,0,1.386,0.046,2.132,0.14c0.493,0.064,0.958-0.24,1.101-0.715c3.372-11.198,13.911-19.02,25.634-19.024
			c6.178,0,11.922,2.082,16.508,5.665c0.04,0.046,0.081,0.091,0.129,0.13c2.655,2.108,4.856,4.655,6.523,7.522
			c0.041,0.071,0.077,0.144,0.117,0.215c0.283,0.497,0.553,1.001,0.804,1.516c0.114,0.235,0.213,0.479,0.32,0.719
			c0.169,0.375,0.343,0.748,0.494,1.131c0.225,0.572,0.429,1.156,0.617,1.749c0.023,0.072,0.052,0.141,0.074,0.213
			c0.08,0.259,0.261,0.476,0.502,0.602c0.121,0.063,0.252,0.1,0.385,0.111c0.133,0.011,0.268-0.004,0.398-0.046
			c1.301-0.421,2.641-0.686,4.002-0.793c0.454-0.035,0.91-0.053,1.367-0.053c6.637,0,12.606,3.688,15.579,9.625
			c0.241,0.481,0.818,0.691,1.311,0.478c1.609-0.691,3.318-1.042,5.084-1.043c0.508,0,1.013,0.037,1.516,0.097
			c0.125,0.015,0.247,0.038,0.371,0.057c0.389,0.058,0.775,0.131,1.156,0.224c0.122,0.03,0.243,0.06,0.364,0.094
			c0.414,0.114,0.823,0.248,1.224,0.403c0.069,0.027,0.141,0.049,0.209,0.077c0.474,0.193,0.938,0.413,1.388,0.662
			c3.956,2.195,6.643,6.408,6.644,11.238C114.959,84.728,113.621,87.957,111.19,90.385z M93.784,0.538h-2.033v12.171h2.033V0.538z
			 M127.389,45.699l0,0.065l-0.642-0.002l-0.005,2.03l12.189,0.03l0-0.066l0.641,0.002l0.005-2.03L127.389,45.699z M126.202,14.421
			l-1.436-1.436l-8.629,8.596l1.436,1.437L126.202,14.421z M117.869,70.12l-0.451-0.454l-1.443,1.43l8.587,8.639l0.047-0.046
			l0.451,0.454l1.443-1.43l-8.587-8.639L117.869,70.12z M69.663,21.812l-8.586-8.639l-1.443,1.43l8.586,8.639L69.663,21.812z
			 M124.299,33.916l5.418-2.67l-0.9-1.82l-5.418,2.669L124.299,33.916z M80.738,15.174l-2.66-5.417l-1.825,0.893l2.659,5.417
			L80.738,15.174z M124.12,60.198l5.708,1.974l0.666-1.918l-5.708-1.974L124.12,60.198z M62.351,32.487l-5.708-1.975l-0.666,1.918
			l5.708,1.974L62.351,32.487z M108.866,10.059l-1.919-0.669l-1.991,5.695l1.919,0.669L108.866,10.059z M5.971,119.325h2.033
			v-12.857H5.971V119.325z M25.208,121.039h2.033v-12.857h-2.033V121.039z M44.444,122.753h2.033v-12.857h-2.033V122.753z
			 M63.681,124.468h2.033v-12.857h-2.033V124.468z M82.918,126.182h2.033v-12.857h-2.033V126.182z M102.155,127.896h2.033v-12.857
			h-2.033V127.896z M15.131,130.468h2.033v-12.857h-2.033V130.468z M34.368,132.183h2.033v-12.857h-2.033V132.183z M53.605,133.897
			h2.033v-12.857h-2.033V133.897z M72.842,135.611h2.033v-12.857h-2.033V135.611z M92.079,137.325h2.033v-12.857h-2.033V137.325z
			 M111.315,139.04h2.033v-12.857h-2.033V139.04z"/>
	</g>
</g>
<g>
</g>
<g>
</g>
<g>
</g>
<g>
</g>
<g>
</g>
<g>
</g>
<g>
</g>
<g>
</g>
<g>
</g>
<g>
</g>
<g>
</g>
<g>
</g>
<g>
</g>
<g>
</g>
<g>
</g>
</svg>
