<?xml version="1.0" encoding="iso-8859-1"?>
<!-- Generator: Adobe Illustrator 19.0.0, SVG Export Plug-In . SVG Version: 6.00 Build 0)  -->
<svg version="1.1" id="Capa_1" xmlns="http://www.w3.org/2000/svg" xmlns:xlink="http://www.w3.org/1999/xlink" x="0px" y="0px"
	 viewBox="0 0 370 370" style="enable-background:new 0 0 370 370;" xml:space="preserve">
<g>
	<g>
		<path d="M251.2,168c-1.6-2-4.4-2.8-7.2-1.6l-3.6,1.2l-17.6-38.4c-1.2-2.4-3.2-3.6-5.6-3.6H158c-2,0-3.6,0.8-4.8,2.4L120,168
			c-1.2,1.2-1.6,3.2-1.2,4.8c0.4,1.6,1.2,3.2,2.4,4.4l33.2,24.8c2.8,2,6.8,1.6,8.8-1.2l19.6-26l7.2,12.4l-4,2
			c-2.4,1.2-3.6,3.6-3.2,6.4c0.4,2.4,2,4.8,4.8,5.2l37.2,9.2c0.4,0,0.8,0,1.6,0c2,0,4-1.2,5.2-2.8l20-32
			C253.2,172.8,252.8,170,251.2,168z M157.2,188L134,170.8l27.2-32.8h2l13.2,24.4L157.2,188z M222.8,196.4L204,192
			c0,0,0-0.4,0.4-0.4c0.4-1.6,0.4-3.2-0.4-4.8l-14.8-26.4l-12-22h36l18,39.2c0.4,1.2,1.2,2,2,2.4L222.8,196.4z"/>
	</g>
</g>
<g>
	<g>
		<path d="M170,258l-32.4-0.8l6.4-12.8l4,2.4c2.4,1.2,5.2,1.2,7.2-0.8c2-1.6,2.8-4.4,1.6-6.8l-13.2-36c-0.8-2.4-3.6-4.4-6-4l-38,1.6
			c-2.8,0-4.8,2-5.6,4.4c-0.8,2.4,0.4,5.2,2.4,6.8l3.2,2l-22,35.2c-1.2,2-1.2,4.8,0,6.8l25.6,37.2l9.6,14.8c1.2,1.6,3.2,2.8,5.2,2.8
			h51.6c3.6,0,6.4-2.8,6.4-6.4v-40C176,261.2,173.2,258.4,170,258z M110.8,282l-20-30l22.4-36.8c0.4-0.8,0.8-2,0.8-3.2l19.2-0.8
			l6.8,18h-0.4c-1.6,0.4-2.8,1.6-3.6,3.2l-13.6,27.2L110.8,282z M163.6,298.4h-42.4l-2.8-4.4l13.2-24.8l32,1.6V298.4z"/>
	</g>
</g>
<g>
	<g>
		<path d="M293.2,248.4l-22.8-46.8c-0.8-1.6-2-2.8-3.6-3.2c-1.6-0.4-3.2-0.4-4.8,0.4l-36.8,20c-3.2,2-4,5.6-2.4,8.4l15.6,28.4
			l-14.4,1.6v-4.4c0-2.8-2-4.8-4.4-5.6c-2.4-0.8-5.2,0-6.8,2l-23.6,30c-1.6,2-1.6,5.2-0.4,7.2L210,318c1.2,1.6,3.2,2.8,5.2,2.8
			c0.4,0,1.2,0,1.6-0.4c2.4-0.8,4.4-3.2,4.4-5.6v-3.6h41.6c2.4,0,4.8-1.6,5.6-3.6l24.8-54C294,252,294,250,293.2,248.4z
			 M259.2,298.4h-43.6c-1.2,0-2,0.4-3.2,0.8l-10.8-16l12-15.2l0.4,0.4c1.2,1.2,2.8,1.6,4.8,1.6l30.4-2.8l24.8-1.6L259.2,298.4z
			 M280,252.8l-27.6,2l-15.6-28l25.2-14l18.8,38.4L280,252.8z"/>
	</g>
</g>
<g>
	<g>
		<path d="M336.8,34.8H225.6C222.4,15.2,205.6,0,185.2,0c-20.4,0-37.6,15.2-40.4,34.8H33.6C18,34.8,5.2,47.6,5.2,63.2
			C5.2,76,14,86.8,25.6,90l25.2,231.6c0,26.8,22,48.4,48.8,48.4h170.8c26.8,0,48.8-21.6,48.8-48.4L344.4,90
			c11.6-3.6,20.4-14,20.4-26.8C364.8,47.6,352.4,34.8,336.8,34.8z M185.2,12.4c13.6,0,25.2,9.6,28,22.4h-56
			C160,22,171.6,12.4,185.2,12.4z M307.2,320.8c0,0.4,0,0.4,0,0.8c0,20-16.4,36.4-36.4,36.4H100c-20,0-36.4-16.4-36.4-36.4
			c0-0.4,0-0.4,0-0.8L38.8,91.6H332L307.2,320.8z M336.8,79.2H33.6c-8.8,0-16-7.2-16-16s7.2-16,16-16h302.8c8.8,0,16,7.2,16,16
			S345.2,79.2,336.8,79.2z"/>
	</g>
</g>
<g>
</g>
<g>
</g>
<g>
</g>
<g>
</g>
<g>
</g>
<g>
</g>
<g>
</g>
<g>
</g>
<g>
</g>
<g>
</g>
<g>
</g>
<g>
</g>
<g>
</g>
<g>
</g>
<g>
</g>
</svg>
